<svg xmlns="http://www.w3.org/2000/svg" viewBox="0 0 218.38 41.52">
  <defs>
    <style>
      .cls-1 {
        fill: #17c7bd;
      }

      .cls-2 {
        fill: #178bc7;
      }
    </style>
  </defs>
  <g id="Layer_2" data-name="Layer 2">
    <g id="Layer_1-2" data-name="Layer 1">
      <path class="cls-1" d="M63.32,22.72h4.3c0,.07,0,.18.06.3a4.17,4.17,0,0,0,.29.69,3.22,3.22,0,0,0,.64.86,3.38,3.38,0,0,0,1.15.68,4.64,4.64,0,0,0,1.76.32,3.33,3.33,0,0,0,2-.48A1.34,1.34,0,0,0,74.17,24a1,1,0,0,0-.19-.6,1.61,1.61,0,0,0-.44-.46,2.93,2.93,0,0,0-.73-.35A7.91,7.91,0,0,0,72,22.3l-1-.25a28.46,28.46,0,0,1-3.78-1.11q-3.63-1.52-3.63-4.51a4.75,4.75,0,0,1,1-2.92,6.48,6.48,0,0,1,2.64-2,9.07,9.07,0,0,1,3.69-.74,8.42,8.42,0,0,1,3.07.54,6.28,6.28,0,0,1,3.61,3.34A5,5,0,0,1,78,16.72h-4.3a1.91,1.91,0,0,0-.8-1.43,3.17,3.17,0,0,0-2.1-.68,4.35,4.35,0,0,0-2,.45,1.31,1.31,0,0,0-.9,1.16q0,.62.78,1a20.5,20.5,0,0,0,2.93.91,24.61,24.61,0,0,1,3.53,1.12c2,.89,3,2.17,3.24,3.87a4.62,4.62,0,0,1,0,.65,4.82,4.82,0,0,1-2,4.06,8.32,8.32,0,0,1-5.2,1.52,10.08,10.08,0,0,1-3-.42,7.1,7.1,0,0,1-2.26-1.09,7.25,7.25,0,0,1-1.53-1.55,6.44,6.44,0,0,1-.92-1.78,5.71,5.71,0,0,1-.28-1.75ZM86,29H81.65V11H86v7h7.89V11h4.35V29H93.87V22H86Zm20.57,0h-4.32V11h4.32Zm8.23,0h-4.36V11h8.29a7.39,7.39,0,0,1,3,.59,5.76,5.76,0,0,1,2.14,1.57,7.17,7.17,0,0,1,1.25,2.2,7.56,7.56,0,0,1,.43,2.56,8.41,8.41,0,0,1-.26,2.08,6.75,6.75,0,0,1-.83,1.91,6.66,6.66,0,0,1-1.35,1.55,6.27,6.27,0,0,1-1.93,1.05,7.8,7.8,0,0,1-2.47.38h-3.9Zm0-13.93v5.88h3.44a2.71,2.71,0,0,0,2.92-3,2.76,2.76,0,0,0-.79-2.14,3.08,3.08,0,0,0-2.13-.76ZM128,22.72h4.31a2.64,2.64,0,0,0,0,.3,3.67,3.67,0,0,0,.3.69,3.41,3.41,0,0,0,.63.86,3.49,3.49,0,0,0,1.15.68,4.69,4.69,0,0,0,1.77.32,3.35,3.35,0,0,0,2-.48,1.35,1.35,0,0,0,.65-1.11,1,1,0,0,0-.19-.6,1.73,1.73,0,0,0-.43-.46,2.93,2.93,0,0,0-.73-.35,7.91,7.91,0,0,0-.84-.27l-1-.25a27.76,27.76,0,0,1-3.77-1.11c-2.42-1-3.64-2.51-3.64-4.51a4.76,4.76,0,0,1,1-2.92,6.38,6.38,0,0,1,2.63-2,9.12,9.12,0,0,1,3.7-.74,8.42,8.42,0,0,1,3.07.54,6.39,6.39,0,0,1,2.27,1.42,6.53,6.53,0,0,1,1.34,1.92,5.17,5.17,0,0,1,.47,2.11h-4.3a1.9,1.9,0,0,0-.81-1.43,3.15,3.15,0,0,0-2.09-.68,4.35,4.35,0,0,0-2,.45,1.31,1.31,0,0,0-.91,1.16q0,.62.78,1a20.32,20.32,0,0,0,2.94.91,24.38,24.38,0,0,1,3.52,1.12c2,.89,3.05,2.17,3.25,3.87a4.63,4.63,0,0,1,0,.65,4.84,4.84,0,0,1-2,4.06,8.34,8.34,0,0,1-5.2,1.52,10,10,0,0,1-3-.42,7.16,7.16,0,0,1-2.27-1.09,7.25,7.25,0,0,1-1.53-1.55,6.39,6.39,0,0,1-.91-1.78,5.73,5.73,0,0,1-.29-1.75ZM150.26,29l-6-17.95h4.62l3.72,11.65L156.71,11h4.73l3.65,11.59L169.25,11h4.65l-6.73,18h-4.44L159,17.31,154.75,29Zm31,0h-4.33V11h4.33Zm8.33,0h-4.32V11H199v4h-9.43v4.11h7.86v4h-7.86Zm18.1-13.93h-6.36V11h17.1v4H212V29h-4.37Z"/>
      <path class="cls-2" d="M24.11,0,21,9.05H35.53a1.54,1.54,0,1,1,0,3.07H20L19,15h6.68a1.54,1.54,0,1,1,0,3.07H17.9l-1,2.89H29.25a1.54,1.54,0,0,1,0,3.08H15.85L14,29.55H41.21L51.29,0Z"/>
      <path class="cls-1" d="M38.48,41.52,44,38.21a1,1,0,0,0,.36-1.43,1,1,0,0,0-1.44-.36l-3,1.78L38.6,31.64H36.46Z"/>
      <path class="cls-1" d="M24.75,38.41l-5.49-3.33-3.69,3.3a1,1,0,0,0-.08,1.48,1,1,0,0,0,1.47.08l2.54-2.26,6,3.63,5.59-9.67H28.66Z"/>
      <path class="cls-1" d="M29,2.36,27.77,6.07H1.54a1.54,1.54,0,1,0,0,3.07h6.3a1.44,1.44,0,0,1,.51-.09h29.5a1.54,1.54,0,1,1,0,3.07H11.75a1.54,1.54,0,0,0,0,2.9H28a1.54,1.54,0,1,1,0,3.07H7A1.53,1.53,0,0,0,7,21H31.57a1.54,1.54,0,1,1,0,3.08h-10l-1.88,5.49H46.89L56.22,2.36Z"/>
    </g>
  </g>
</svg>
